<svg width="179" height="443" viewBox="0 0 179 443" fill="none" xmlns="http://www.w3.org/2000/svg">
<path d="M249.55 367.484C249.63 367.375 249.69 367.298 249.72 367.243C249.91 366.946 220.26 379.745 204.77 355.941C197.71 345.134 197.65 338.072 195.63 329.723C195.24 328.053 194.65 326.443 193.96 324.85C191.2 326.501 187.43 328.557 181.91 330.635C131.72 349.511 96.1699 313.458 65.5499 275.051C41.8999 245.378 0 261.724 0 261.724C0 261.724 22.07 268.521 19.34 295.94C16.18 327.661 19.84 365.54 51.41 398.685C52.89 400.234 56.88 404.013 56.88 404.013C56.88 404.013 55.2 404.513 52.21 404.32C48.37 404.078 46.41 403.49 46.41 403.49C46.41 403.49 54.57 413.715 72.52 424.272C99.24 439.992 130.79 446.396 164.45 439.911C197.23 433.589 215 418.778 245.98 390.589C244.9 389.409 244.12 387.506 243.93 384.32C243.44 375.293 248.38 369.071 249.53 367.483L249.55 367.484ZM151.89 404.725C152.53 419.697 129.65 425.542 99.78 411.025C66.09 388.45 55.52 369.056 55.5 369.145C55.5 369.145 60.1199 372.002 65.9399 375.254C70.5599 377.829 74.11 378.771 75.28 379.04C73.37 377.154 66.05 367.522 60.02 357.813C51.9 344.752 47.51 332.731 47.51 332.731C47.51 332.731 57.67 344.596 67.86 353.465C84.86 368.266 105.89 383.534 121.93 387.048C134.85 389.877 151.25 389.754 151.88 404.713L151.89 404.725Z" fill="url(#paint0_linear_1_24)"/>
<path d="M67.87 353.477C57.68 344.597 47.51 332.742 47.51 332.742C47.51 332.742 51.91 344.763 60.02 357.825C66.05 367.533 73.36 377.153 75.28 379.051C74.12 378.794 70.5699 377.84 65.9399 375.265C60.1199 372.014 55.5 369.156 55.5 369.156C55.53 369.067 66.09 388.461 99.79 411.037C129.65 425.554 152.53 419.708 151.89 404.736C151.25 389.765 134.86 389.9 121.94 387.071C105.9 383.557 84.87 368.289 67.88 353.488L67.87 353.477Z" fill="url(#paint1_linear_1_24)"/>
<path d="M66.01 362.625C55.82 353.745 45.65 341.891 45.65 341.891C45.65 341.891 50.05 353.912 58.16 366.973C64.19 376.681 71.4999 386.301 73.4299 388.199C72.2599 387.942 68.71 386.989 64.09 384.414C58.26 381.162 53.64 378.304 53.64 378.304C53.67 378.215 64.2299 397.609 97.9299 420.185C127.79 434.702 150.67 428.856 150.03 413.885C149.39 398.913 133.01 399.049 120.08 396.22C104.04 392.706 83.01 377.438 66.02 362.637L66.01 362.625Z" fill="url(#paint2_linear_1_24)"/>
<path d="M14.1799 168.17C13.0899 161.37 27.52 156.145 31.6 144.785C32.96 141.005 31.89 134.59 30.51 128.613C29.46 124.047 28.1999 119.735 27.6699 117.05C25.3099 105.071 21.92 96.9773 18.49 79.3663C15 61.4853 14.31 50.1793 20.24 45.2033C25.34 40.9173 37.37 44.7513 53.53 55.5663C66.11 63.9773 69.02 65.8982 75.74 68.9362C75.75 68.9472 75.76 68.9503 75.78 68.9533C76.16 69.1253 85.02 64.6652 88.97 62.5912C89.74 62.1852 89.9999 61.1253 89.9499 59.4123C89.8599 54.8583 87.7099 45.5103 87.6899 30.4003C87.6499 12.5143 89.95 2.81725 97.71 0.225249C104.26 -1.96175 121.13 12.2053 133.46 24.1373C143.67 34.0193 144.5 35.0882 148.41 38.6022C151.96 41.7952 156.23 45.7623 160.69 49.4323C167.16 54.7683 174.05 59.4883 179.8 60.3053C192.13 62.0603 199.38 53.9432 204.82 58.1322C211.13 62.9932 203.74 64.8633 205.33 65.7773C205.59 65.9333 205.93 65.9803 206.29 66.0093C191.35 70.9243 179.98 81.3133 173.04 92.9003C165.34 105.736 163.58 118.541 159.12 120.024C158.98 120.005 158.85 119.966 158.69 119.944C154.08 119.446 150.13 118.447 146.49 117.462C139.05 115.065 133.26 112.558 125.34 115.64C121.69 117.063 118.8 119.305 116.38 122.105C113.1 125.699 110.86 130.33 108.87 135.45C106.57 141.128 104.59 147.303 102.11 153.187C101.85 153.785 101.67 154.383 101.53 154.985C97.83 157.428 79.04 154.695 63.74 156.355C47.87 158.077 34.16 163.723 20.6 172.665C21.51 170.018 14.85 172.513 14.15 168.156L14.1799 168.17Z" fill="url(#paint3_linear_1_24)"/>
<path d="M49.4699 95.5132C42.0199 108.776 34.3 122.254 30.5 128.609C29.45 124.043 28.19 119.731 27.66 117.046C25.3 105.067 21.9099 96.9742 18.4799 79.3622C14.9999 61.4922 14.31 50.1872 20.24 45.2102C25.34 40.9242 37.37 44.7582 53.53 55.5732C66.11 63.9842 69.02 65.9052 75.74 68.9432C69.62 72.6882 57.3699 81.4292 49.4699 95.5132Z" fill="url(#paint4_linear_1_24)"/>
<path d="M89.96 59.4272C89.87 54.8732 87.71 45.5252 87.7 30.4152C87.66 12.5292 89.96 2.8322 97.72 0.240202C104.27 -1.9468 121.13 12.2202 133.46 24.1522C143.68 34.0342 144.51 35.1022 148.42 38.6172C151.96 41.8102 156.24 45.7772 160.69 49.4472C152.59 49.6122 138.86 49.7512 125.38 49.7732C109.71 49.8052 96.44 55.8442 89.95 59.4152L89.96 59.4272Z" fill="url(#paint5_linear_1_24)"/>
<path d="M101.55 155.009C98.4599 167.459 117.2 179.676 140.28 169.218C144.44 167.334 148.06 165.142 151.2 162.764C172.55 146.784 170.94 121.9 159.13 120.044C163.58 118.561 165.35 105.768 173.05 92.9202C179.99 81.3452 191.37 70.9352 206.29 66.0292C209.58 66.2042 216.56 61.6953 219.88 66.5243C222.91 70.9213 213.3 74.1912 214.57 76.2662C216.3 79.0982 223.15 76.6312 224.85 79.4972C229.08 86.7222 210.76 96.5833 207.06 116.522C204.31 131.27 214.33 146.367 231.49 164.794C243.89 178.103 347.03 140.206 266.97 200.795C186.92 261.385 221.57 265.077 205.72 350.831C167.18 312.465 122.53 215.074 61.27 195.923C41.13 193.447 35.3299 200.098 31.3399 194.785C29.4499 192.283 33.5099 189.208 31.8199 186.573C29.1599 182.428 17.3799 189.256 15.3299 184.774C12.8799 179.462 18.7899 175.679 20.1899 173.543C20.4099 173.201 20.54 172.928 20.62 172.688C34.18 163.746 47.89 158.1 63.76 156.378C79.06 154.719 97.8599 157.451 101.55 155.009Z" fill="url(#paint6_linear_1_24)"/>
<path opacity="0.6" d="M101.55 155.009C98.4599 167.459 117.2 179.676 140.28 169.218C144.44 167.334 148.06 165.142 151.2 162.764C172.55 146.784 170.94 121.9 159.13 120.044C163.58 118.561 165.35 105.768 173.05 92.9202C179.99 81.3452 191.37 70.9352 206.29 66.0292C209.58 66.2042 216.56 61.6953 219.88 66.5243C222.91 70.9213 213.3 74.1912 214.57 76.2662C216.3 79.0982 223.15 76.6312 224.85 79.4972C229.08 86.7222 210.76 96.5833 207.06 116.522C204.31 131.27 214.33 146.367 231.49 164.794C243.89 178.103 266.97 200.795 266.97 200.795C186.6 261.624 220.73 266.339 206.23 352.635C172.41 315.752 121.07 214.195 61.27 195.923C41.13 193.447 35.3299 200.098 31.3399 194.785C29.4499 192.283 33.5099 189.208 31.8199 186.573C29.1599 182.428 17.3799 189.256 15.3299 184.774C12.8799 179.462 18.7899 175.679 20.1899 173.543C20.4099 173.201 20.54 172.928 20.62 172.688C34.18 163.746 47.89 158.1 63.76 156.378C79.06 154.719 97.8599 157.451 101.55 155.009Z" fill="url(#paint7_linear_1_24)"/>
<path d="M116.4 122.117C113.25 125.79 110.93 130.421 108.89 135.462C110.87 130.362 113.11 125.72 116.4 122.117Z" fill="#FFCF34"/>
<path d="M101.55 154.995C101.7 154.392 101.88 153.795 102.14 153.197C104.61 147.321 106.59 141.146 108.9 135.459C110.94 130.418 113.26 125.787 116.41 122.114C118.82 119.304 121.71 117.062 125.37 115.65C133.3 112.579 139.06 115.084 146.52 117.471C150.14 118.455 154.09 119.453 158.72 119.954C158.87 119.964 159 120.003 159.15 120.033C170.97 121.89 172.58 146.773 151.23 162.754C148.1 165.123 144.48 167.315 140.3 169.207C117.22 179.654 98.4699 167.457 101.57 154.998L101.55 154.995ZM134.48 133.535C140.39 129.983 139.51 123.834 137.16 122.032C135.26 120.574 131.42 120.093 126.61 122.973C122.36 125.519 121.48 129.024 122.07 131.194C122.89 134.241 128.87 136.917 134.47 133.544L134.48 133.535Z" fill="#FFC635"/>
<path d="M122.08 131.212C121.5 129.041 122.38 125.537 126.63 122.991C131.43 120.11 135.28 120.592 137.17 122.05C139.51 123.849 140.39 130.009 134.5 133.552C128.9 136.926 122.92 134.25 122.09 131.203L122.08 131.212Z" fill="#00073A"/>
<path d="M93.4599 133.537C87.9199 136.638 84.1499 137.943 78.9699 129.593C72.3899 118.958 73.9299 113.044 79.8199 109.821C85.9799 106.445 90.1999 111.107 95.5499 119.833C99.4799 126.233 96.3499 131.918 93.4499 133.546L93.4599 133.537ZM79.4 117.94C77.92 118.81 77.42 120.709 78.29 122.186C79.16 123.662 81.06 124.166 82.54 123.296C84.01 122.425 84.52 120.526 83.65 119.05C82.78 117.573 80.88 117.069 79.4 117.94Z" fill="url(#paint8_linear_1_24)"/>
<path d="M82.56 123.294C81.08 124.165 79.17 123.669 78.31 122.184C77.45 120.699 77.93 118.797 79.42 117.938C80.9 117.079 82.81 117.563 83.67 119.048C84.54 120.525 84.04 122.435 82.56 123.294Z" fill="white"/>
<path d="M147.68 101.829C141.96 105.034 138.12 106.1 133.9 99.7702C127.14 89.6532 125.5 82.1432 133.6 78.1822C138.7 75.6832 144.06 79.8612 148.7 86.9222C154.42 95.6192 150.68 100.144 147.68 101.829ZM133.26 86.2922C131.82 87.1372 131.33 88.9882 132.17 90.4312C133.02 91.8742 134.87 92.3612 136.31 91.5162C137.76 90.6712 138.24 88.8202 137.4 87.3772C136.55 85.9342 134.7 85.4472 133.26 86.2922Z" fill="url(#paint9_linear_1_24)"/>
<path d="M136.33 91.5152C134.88 92.3602 133.03 91.8732 132.19 90.4302C131.34 88.9872 131.83 87.1362 133.27 86.2912C134.72 85.4462 136.57 85.9332 137.41 87.3762C138.26 88.8192 137.77 90.6702 136.33 91.5152Z" fill="white"/>
<defs>
<linearGradient id="paint0_linear_1_24" x1="-25.72" y1="311.102" x2="259.65" y2="436.135" gradientUnits="userSpaceOnUse">
<stop stop-color="#FFEB49"/>
<stop offset="0.45" stop-color="#FF6600"/>
<stop offset="0.54" stop-color="#FF6109"/>
<stop offset="0.69" stop-color="#FF5322"/>
<stop offset="0.82" stop-color="#FF453F"/>
<stop offset="1" stop-color="#FB2872"/>
</linearGradient>
<linearGradient id="paint1_linear_1_24" x1="-33.41" y1="331.27" x2="228.75" y2="431.226" gradientUnits="userSpaceOnUse">
<stop stop-color="#FFE500"/>
<stop offset="0.45" stop-color="#FF6D00"/>
<stop offset="0.54" stop-color="#FF6709"/>
<stop offset="0.69" stop-color="#FF5622"/>
<stop offset="0.82" stop-color="#FF453F"/>
<stop offset="1" stop-color="#FB0372"/>
</linearGradient>
<linearGradient id="paint2_linear_1_24" x1="30.87" y1="341.343" x2="119.94" y2="411.472" gradientUnits="userSpaceOnUse">
<stop stop-color="#FFEB49"/>
<stop offset="0.09" stop-color="#FFE545" stop-opacity="0.96"/>
<stop offset="0.24" stop-color="#FFD63D" stop-opacity="0.84"/>
<stop offset="0.44" stop-color="#FFBD2F" stop-opacity="0.66"/>
<stop offset="0.67" stop-color="#FF9A1C" stop-opacity="0.4"/>
<stop offset="0.94" stop-color="#FF6F05" stop-opacity="0.07"/>
<stop offset="1" stop-color="#FF6600" stop-opacity="0"/>
</linearGradient>
<linearGradient id="paint3_linear_1_24" x1="43.6499" y1="19.7032" x2="206.24" y2="252.747" gradientUnits="userSpaceOnUse">
<stop stop-color="#FF6600"/>
<stop offset="0.11" stop-color="#FF6A02"/>
<stop offset="0.23" stop-color="#FF7709"/>
<stop offset="0.35" stop-color="#FF8C15"/>
<stop offset="0.47" stop-color="#FFAA25"/>
<stop offset="0.49" stop-color="#FFB029"/>
<stop offset="0.55" stop-color="#FFAC27"/>
<stop offset="0.62" stop-color="#FFA120"/>
<stop offset="0.68" stop-color="#FF8F16"/>
<stop offset="0.73" stop-color="#FF7508"/>
<stop offset="0.76" stop-color="#FF6600"/>
<stop offset="0.91" stop-color="#FB2872"/>
</linearGradient>
<linearGradient id="paint4_linear_1_24" x1="50.89" y1="96.2252" x2="0.489942" y2="42.4432" gradientUnits="userSpaceOnUse">
<stop stop-color="#FF6600" stop-opacity="0"/>
<stop offset="0.03" stop-color="#FF6600" stop-opacity="0.17"/>
<stop offset="0.07" stop-color="#FF6600" stop-opacity="0.36"/>
<stop offset="0.11" stop-color="#FF6600" stop-opacity="0.53"/>
<stop offset="0.16" stop-color="#FF6600" stop-opacity="0.68"/>
<stop offset="0.2" stop-color="#FF6600" stop-opacity="0.8"/>
<stop offset="0.25" stop-color="#FF6600" stop-opacity="0.89"/>
<stop offset="0.3" stop-color="#FF6600" stop-opacity="0.95"/>
<stop offset="0.36" stop-color="#FF6600" stop-opacity="0.99"/>
<stop offset="0.43" stop-color="#FF6600"/>
<stop offset="0.72" stop-color="#FD4737"/>
<stop offset="1" stop-color="#FB2872"/>
</linearGradient>
<linearGradient id="paint5_linear_1_24" x1="124.78" y1="52.4252" x2="102.41" y2="-17.8078" gradientUnits="userSpaceOnUse">
<stop stop-color="#FF6600" stop-opacity="0"/>
<stop offset="0.03" stop-color="#FF6600" stop-opacity="0.17"/>
<stop offset="0.07" stop-color="#FF6600" stop-opacity="0.36"/>
<stop offset="0.11" stop-color="#FF6600" stop-opacity="0.53"/>
<stop offset="0.16" stop-color="#FF6600" stop-opacity="0.68"/>
<stop offset="0.2" stop-color="#FF6600" stop-opacity="0.8"/>
<stop offset="0.25" stop-color="#FF6600" stop-opacity="0.89"/>
<stop offset="0.3" stop-color="#FF6600" stop-opacity="0.95"/>
<stop offset="0.36" stop-color="#FF6600" stop-opacity="0.99"/>
<stop offset="0.43" stop-color="#FF6600"/>
<stop offset="0.72" stop-color="#FD4737"/>
<stop offset="1" stop-color="#FB2872"/>
</linearGradient>
<linearGradient id="paint6_linear_1_24" x1="67.4899" y1="54.6563" x2="260.39" y2="327.989" gradientUnits="userSpaceOnUse">
<stop stop-color="#FF6600"/>
<stop offset="0.33" stop-color="#FFB029"/>
<stop offset="0.46" stop-color="#FF9218"/>
<stop offset="0.63" stop-color="#FF6600"/>
<stop offset="1" stop-color="#FB2872"/>
</linearGradient>
<linearGradient id="paint7_linear_1_24" x1="113.81" y1="120.954" x2="286.4" y2="335.517" gradientUnits="userSpaceOnUse">
<stop stop-color="#FFEB49"/>
<stop offset="0.36" stop-color="#FFB52B" stop-opacity="0.6"/>
<stop offset="0.67" stop-color="#FF8A14" stop-opacity="0.28"/>
<stop offset="0.89" stop-color="#FF7005" stop-opacity="0.08"/>
<stop offset="1" stop-color="#FF6600" stop-opacity="0"/>
</linearGradient>
<linearGradient id="paint8_linear_1_24" x1="78.4599" y1="100.849" x2="90.5399" y2="134.749" gradientUnits="userSpaceOnUse">
<stop offset="0.16" stop-color="#A030B9"/>
<stop offset="0.88" stop-color="#00073A"/>
</linearGradient>
<linearGradient id="paint9_linear_1_24" x1="132.08" y1="71.2122" x2="143.68" y2="100.166" gradientUnits="userSpaceOnUse">
<stop offset="0.16" stop-color="#A030B9"/>
<stop offset="0.88" stop-color="#00073A"/>
</linearGradient>
</defs>
</svg>
